HIERARCHY
ROOT mixamorig:Hips
{
	OFFSET -0.000008 104.274872 1.554316
	CHANNELS 6 Xposition Yposition Zposition Xrotation Yrotation Zrotation
	JOINT mixamorig:Spine
	{
		OFFSET -0.000005 10.181595 0.131519
		CHANNELS 6 Xposition Yposition Zposition Xrotation Yrotation Zrotation
		JOINT mixamorig:Spine1
		{
			OFFSET -0.000000 9.893959 -1.470707
			CHANNELS 6 Xposition Yposition Zposition Xrotation Yrotation Zrotation
			JOINT mixamorig:Spine2
			{
				OFFSET -0.000000 9.220757 -1.370641
				CHANNELS 6 Xposition Yposition Zposition Xrotation Yrotation Zrotation
				JOINT mixamorig:Neck
				{
					OFFSET 0.000001 16.740417 -2.049036
					CHANNELS 6 Xposition Yposition Zposition Xrotation Yrotation Zrotation
					JOINT mixamorig:Head
					{
						OFFSET 0.000000 9.617874 1.685006
						CHANNELS 6 Xposition Yposition Zposition Xrotation Yrotation Zrotation
						JOINT mixamorig:HeadTop_End
						{
							OFFSET 0.000002 22.037354 7.501101
							CHANNELS 6 Xposition Yposition Zposition Xrotation Yrotation Zrotation
							End Site
							{
								OFFSET 0.000168 2310.654297 -282.823242
							}
						}
					}
				}
				JOINT mixamorig:RightShoulder
				{
					OFFSET -4.569970 11.014908 -2.160885
					CHANNELS 6 Xposition Yposition Zposition Xrotation Yrotation Zrotation
					JOINT mixamorig:RightArm
					{
						OFFSET -10.592851 -0.524811 -2.232101
						CHANNELS 6 Xposition Yposition Zposition Xrotation Yrotation Zrotation
						JOINT mixamorig:RightForeArm
						{
							OFFSET -27.841511 0.000031 -0.000004
							CHANNELS 6 Xposition Yposition Zposition Xrotation Yrotation Zrotation
							JOINT mixamorig:RightHand
							{
								OFFSET -28.328831 -0.000015 0.000015
								CHANNELS 6 Xposition Yposition Zposition Xrotation Yrotation Zrotation
								JOINT mixamorig:RightHandThumb1
								{
									OFFSET -2.464806 -1.573990 2.681852
									CHANNELS 6 Xposition Yposition Zposition Xrotation Yrotation Zrotation
									JOINT mixamorig:RightHandThumb2
									{
										OFFSET -3.215179 -1.872803 1.924282
										CHANNELS 6 Xposition Yposition Zposition Xrotation Yrotation Zrotation
										JOINT mixamorig:RightHandThumb3
										{
											OFFSET -2.654831 -1.527969 1.512609
											CHANNELS 6 Xposition Yposition Zposition Xrotation Yrotation Zrotation
											JOINT mixamorig:RightHandThumb4
											{
												OFFSET -2.018814 -1.152008 1.108052
												CHANNELS 6 Xposition Yposition Zposition Xrotation Yrotation Zrotation
												End Site
												{
													OFFSET -188.809540 -114.533607 132.431396
												}
											}
										}
									}
								}
								JOINT mixamorig:RightHandIndex1
								{
									OFFSET -9.108284 -0.517868 2.259835
									CHANNELS 6 Xposition Yposition Zposition Xrotation Yrotation Zrotation
									JOINT mixamorig:RightHandIndex2
									{
										OFFSET -3.699989 0.000000 0.001215
										CHANNELS 6 Xposition Yposition Zposition Xrotation Yrotation Zrotation
										JOINT mixamorig:RightHandIndex3
										{
											OFFSET -2.850006 0.000031 -0.000522
											CHANNELS 6 Xposition Yposition Zposition Xrotation Yrotation Zrotation
											JOINT mixamorig:RightHandIndex4
											{
												OFFSET -2.772186 -0.000015 -0.000020
												CHANNELS 6 Xposition Yposition Zposition Xrotation Yrotation Zrotation
												End Site
												{
													OFFSET -277.218445 0.000000 -0.050231
												}
											}
										}
									}
								}
								JOINT mixamorig:RightHandMiddle1
								{
									OFFSET -9.532516 -0.000031 -0.000023
									CHANNELS 6 Xposition Yposition Zposition Xrotation Yrotation Zrotation
									JOINT mixamorig:RightHandMiddle2
									{
										OFFSET -3.700005 -0.000015 0.003713
										CHANNELS 6 Xposition Yposition Zposition Xrotation Yrotation Zrotation
										JOINT mixamorig:RightHandMiddle3
										{
											OFFSET -2.949974 0.000015 -0.002054
											CHANNELS 6 Xposition Yposition Zposition Xrotation Yrotation Zrotation
											JOINT mixamorig:RightHandMiddle4
											{
												OFFSET -2.946640 0.000000 -0.000156
												CHANNELS 6 Xposition Yposition Zposition Xrotation Yrotation Zrotation
												End Site
												{
													OFFSET -294.664337 0.000000 -0.113670
												}
											}
										}
									}
								}
								JOINT mixamorig:RightHandRing1
								{
									OFFSET -9.103600 -0.043076 -1.865134
									CHANNELS 6 Xposition Yposition Zposition Xrotation Yrotation Zrotation
									JOINT mixamorig:RightHandRing2
									{
										OFFSET -3.379288 0.000000 -0.001055
										CHANNELS 6 Xposition Yposition Zposition Xrotation Yrotation Zrotation
										JOINT mixamorig:RightHandRing3
										{
											OFFSET -2.889687 -0.000015 0.000379
											CHANNELS 6 Xposition Yposition Zposition Xrotation Yrotation Zrotation
											JOINT mixamorig:RightHandRing4
											{
												OFFSET -2.638809 -0.000015 0.000941
												CHANNELS 6 Xposition Yposition Zposition Xrotation Yrotation Zrotation
												End Site
												{
													OFFSET -263.880371 0.000000 0.516020
												}
											}
										}
									}
								}
								JOINT mixamorig:RightHandPinky1
								{
									OFFSET -8.076683 -0.486710 -3.806280
									CHANNELS 6 Xposition Yposition Zposition Xrotation Yrotation Zrotation
									JOINT mixamorig:RightHandPinky2
									{
										OFFSET -3.600014 -0.000015 -0.003747
										CHANNELS 6 Xposition Yposition Zposition Xrotation Yrotation Zrotation
										JOINT mixamorig:RightHandPinky3
										{
											OFFSET -2.099983 0.000000 -0.005739
											CHANNELS 6 Xposition Yposition Zposition Xrotation Yrotation Zrotation
											JOINT mixamorig:RightHandPinky4
											{
												OFFSET -2.115768 -0.000031 -0.003680
												CHANNELS 6 Xposition Yposition Zposition Xrotation Yrotation Zrotation
												End Site
												{
													OFFSET -211.577087 0.000000 -0.350686
												}
											}
										}
									}
								}
							}
						}
					}
				}
				JOINT mixamorig:LeftShoulder
				{
					OFFSET 4.570447 11.014725 -2.160855
					CHANNELS 6 Xposition Yposition Zposition Xrotation Yrotation Zrotation
					JOINT mixamorig:LeftArm
					{
						OFFSET 10.592371 -0.524597 -2.232119
						CHANNELS 6 Xposition Yposition Zposition Xrotation Yrotation Zrotation
						JOINT mixamorig:LeftForeArm
						{
							OFFSET 27.841532 -0.000031 0.000026
							CHANNELS 6 Xposition Yposition Zposition Xrotation Yrotation Zrotation
							JOINT mixamorig:LeftHand
							{
								OFFSET 28.328846 -0.000061 0.000022
								CHANNELS 6 Xposition Yposition Zposition Xrotation Yrotation Zrotation
								JOINT mixamorig:LeftHandThumb1
								{
									OFFSET 2.466141 -1.576172 2.681732
									CHANNELS 6 Xposition Yposition Zposition Xrotation Yrotation Zrotation
									JOINT mixamorig:LeftHandThumb2
									{
										OFFSET 3.217812 -1.872070 1.916482
										CHANNELS 6 Xposition Yposition Zposition Xrotation Yrotation Zrotation
										JOINT mixamorig:LeftHandThumb3
										{
											OFFSET 2.656029 -1.528778 1.514513
											CHANNELS 6 Xposition Yposition Zposition Xrotation Yrotation Zrotation
											JOINT mixamorig:LeftHandThumb4
											{
												OFFSET 2.020889 -1.154053 1.115139
												CHANNELS 6 Xposition Yposition Zposition Xrotation Yrotation Zrotation
												End Site
												{
													OFFSET 190.885437 -115.081749 130.048782
												}
											}
										}
									}
								}
								JOINT mixamorig:LeftHandIndex1
								{
									OFFSET 9.109314 -0.518021 2.259871
									CHANNELS 6 Xposition Yposition Zposition Xrotation Yrotation Zrotation
									JOINT mixamorig:LeftHandIndex2
									{
										OFFSET 3.699989 0.000000 -0.000322
										CHANNELS 6 Xposition Yposition Zposition Xrotation Yrotation Zrotation
										JOINT mixamorig:LeftHandIndex3
										{
											OFFSET 2.850006 0.000000 0.000352
											CHANNELS 6 Xposition Yposition Zposition Xrotation Yrotation Zrotation
											JOINT mixamorig:LeftHandIndex4
											{
												OFFSET 2.774864 -0.000031 -0.000027
												CHANNELS 6 Xposition Yposition Zposition Xrotation Yrotation Zrotation
												End Site
												{
													OFFSET 277.486267 0.000000 -0.009857
												}
											}
										}
									}
								}
								JOINT mixamorig:LeftHandMiddle1
								{
									OFFSET 9.533394 0.000061 0.000044
									CHANNELS 6 Xposition Yposition Zposition Xrotation Yrotation Zrotation
									JOINT mixamorig:LeftHandMiddle2
									{
										OFFSET 3.699989 -0.000015 -0.000231
										CHANNELS 6 Xposition Yposition Zposition Xrotation Yrotation Zrotation
										JOINT mixamorig:LeftHandMiddle3
										{
											OFFSET 2.949997 -0.000015 -0.000059
											CHANNELS 6 Xposition Yposition Zposition Xrotation Yrotation Zrotation
											JOINT mixamorig:LeftHandMiddle4
											{
												OFFSET 2.952896 0.000031 0.000063
												CHANNELS 6 Xposition Yposition Zposition Xrotation Yrotation Zrotation
												End Site
												{
													OFFSET 295.289337 0.000000 0.022810
												}
											}
										}
									}
								}
								JOINT mixamorig:LeftHandRing1
								{
									OFFSET 9.104523 -0.042999 -1.865074
									CHANNELS 6 Xposition Yposition Zposition Xrotation Yrotation Zrotation
									JOINT mixamorig:LeftHandRing2
									{
										OFFSET 3.150009 -0.000031 0.000043
										CHANNELS 6 Xposition Yposition Zposition Xrotation Yrotation Zrotation
										JOINT mixamorig:LeftHandRing3
										{
											OFFSET 2.949982 -0.000015 0.000040
											CHANNELS 6 Xposition Yposition Zposition Xrotation Yrotation Zrotation
											JOINT mixamorig:LeftHandRing4
											{
												OFFSET 2.644348 0.000000 0.000057
												CHANNELS 6 Xposition Yposition Zposition Xrotation Yrotation Zrotation
												End Site
												{
													OFFSET 264.434631 0.000000 0.012105
												}
											}
										}
									}
								}
								JOINT mixamorig:LeftHandPinky1
								{
									OFFSET 8.077789 -0.486847 -3.806259
									CHANNELS 6 Xposition Yposition Zposition Xrotation Yrotation Zrotation
									JOINT mixamorig:LeftHandPinky2
									{
										OFFSET 3.599953 0.000031 0.014727
										CHANNELS 6 Xposition Yposition Zposition Xrotation Yrotation Zrotation
										JOINT mixamorig:LeftHandPinky3
										{
											OFFSET 2.100021 0.000015 0.007705
											CHANNELS 6 Xposition Yposition Zposition Xrotation Yrotation Zrotation
											JOINT mixamorig:LeftHandPinky4
											{
												OFFSET 2.125504 0.000031 0.007517
												CHANNELS 6 Xposition Yposition Zposition Xrotation Yrotation Zrotation
												End Site
												{
													OFFSET 212.550781 0.000000 0.625752
												}
											}
										}
									}
								}
							}
						}
					}
				}
			}
		}
	}
	JOINT mixamorig:RightUpLeg
	{
		OFFSET -8.207787 -6.751648 -1.599560
		CHANNELS 6 Xposition Yposition Zposition Xrotation Yrotation Zrotation
		JOINT mixamorig:RightLeg
		{
			OFFSET -0.000002 -44.370117 0.345942
			CHANNELS 6 Xposition Yposition Zposition Xrotation Yrotation Zrotation
			JOINT mixamorig:RightFoot
			{
				OFFSET 0.000003 -44.423679 -3.043532
				CHANNELS 6 Xposition Yposition Zposition Xrotation Yrotation Zrotation
				JOINT mixamorig:RightToeBase
				{
					OFFSET -0.000002 -8.728671 10.710558
					CHANNELS 6 Xposition Yposition Zposition Xrotation Yrotation Zrotation
					JOINT mixamorig:RightToe_End
					{
						OFFSET -0.000001 -0.000679 9.278119
						CHANNELS 6 Xposition Yposition Zposition Xrotation Yrotation Zrotation
						End Site
						{
							OFFSET 0.000000 -0.067690 927.812134
						}
					}
				}
			}
		}
	}
	JOINT mixamorig:LeftUpLeg
	{
		OFFSET 8.207793 -6.751686 -1.599556
		CHANNELS 6 Xposition Yposition Zposition Xrotation Yrotation Zrotation
		JOINT mixamorig:LeftLeg
		{
			OFFSET -0.000004 -44.370014 0.346954
			CHANNELS 6 Xposition Yposition Zposition Xrotation Yrotation Zrotation
			JOINT mixamorig:LeftFoot
			{
				OFFSET -0.000001 -44.423672 -3.044401
				CHANNELS 6 Xposition Yposition Zposition Xrotation Yrotation Zrotation
				JOINT mixamorig:LeftToeBase
				{
					OFFSET -0.000002 -8.728669 10.710558
					CHANNELS 6 Xposition Yposition Zposition Xrotation Yrotation Zrotation
					JOINT mixamorig:LeftToe_End
					{
						OFFSET -0.000003 -0.000679 9.278133
						CHANNELS 6 Xposition Yposition Zposition Xrotation Yrotation Zrotation
						End Site
						{
							OFFSET 0.000000 -0.068021 927.813477
						}
					}
				}
			}
		}
	}
}
MOTION
Frames: 3
Frame Time: 0.033333
0.000006 104.270477 1.554256 0.000010 0.000003 -0.000113 -0.000005 10.181587 0.131522 0.000001 -0.000003 0.000084 -0.000000 9.893967 -1.470711 0.000001 0.000000 -0.000000 -0.000000 9.220802 -1.370642 0.000000 -0.000000 -0.000000 0.000001 16.740433 -2.049030 0.000000 -0.000000 -0.000000 0.000000 9.617859 1.685014 0.000000 0.000000 0.000000 0.000002 22.037384 7.501101 0.000000 -0.000000 0.000000 -4.569968 11.014880 -2.160881 0.000008 0.000001 -0.000038 -10.592866 -0.524678 -2.232037 70.263051 7.083791 -4.987616 -27.841539 0.000010 0.000542 118.490777 59.241796 -87.392284 -28.328835 0.000021 0.000031 -0.000318 -0.000045 0.000006 -2.464415 -1.573822 2.682356 -41.725240 -160.537121 4.825797 -3.215256 -1.872540 1.924608 150.379770 33.824005 24.433723 -2.654939 -1.527903 1.513093 149.047309 26.119864 -40.593426 -2.018831 -1.151991 1.108064 -0.000004 -0.000001 0.000004 -9.108382 -0.517550 2.260128 101.031625 14.720806 -17.877238 -3.700071 0.000307 0.001524 98.342730 14.132452 -16.300682 -2.850093 0.000368 -0.000248 97.619639 11.897927 -13.579647 -2.772177 -0.000015 -0.000022 0.000000 -0.000002 -0.000001 -9.532595 0.000286 0.000262 99.199461 12.715958 -15.079123 -3.700066 0.000335 0.003997 99.112404 12.240327 -14.228625 -2.950069 0.000338 -0.001790 97.067773 11.519160 -13.015278 -2.946628 0.000002 -0.000157 -0.000001 -0.000000 0.000001 -9.103680 -0.042747 -1.864853 97.856072 14.315421 -16.349712 -3.379324 0.000329 -0.000788 98.516238 8.550591 -9.939745 -2.889768 0.000376 0.000658 99.431947 6.216964 -7.385317 -2.638809 -0.000027 0.000939 -0.000001 0.000000 0.000000 -8.076742 -0.486372 -3.806016 91.823199 15.879404 -16.232549 -3.600035 0.000286 -0.003521 95.102871 6.692421 -6.936161 -2.100017 0.000323 -0.005498 93.536688 3.235493 -3.216397 -2.115767 -0.000070 -0.003674 -0.000003 -0.000003 -0.000003 4.570446 11.014691 -2.160851 -0.000018 0.000010 -0.000021 10.592358 -0.524549 -2.232270 69.857119 14.702179 -10.296136 27.841827 0.000146 -0.000212 102.206254 -59.780411 70.934930 28.328833 -0.000042 0.000026 0.000018 -0.000089 -0.000000 2.466198 -1.576099 2.681862 3.523320 160.290251 -87.132880 3.217834 -1.871772 1.916388 167.422458 -26.499954 21.551388 2.656108 -1.528674 1.514498 141.206634 -26.794916 58.805238 2.020883 -1.154065 1.115144 -0.000006 -0.000000 0.000003 9.109371 -0.517879 2.259744 82.392975 -19.775658 17.338937 3.700039 0.000146 -0.000451 81.397325 -17.451142 15.055149 2.850059 0.000166 0.000211 79.527950 -14.289347 11.908056 2.774889 -0.000022 -0.000025 -0.000003 -0.000001 -0.000001 9.533468 0.000201 -0.000084 83.989033 -18.192159 16.394988 3.700055 0.000175 -0.000358 86.535854 -14.384182 13.545279 2.950072 0.000169 -0.000198 87.653184 -15.982919 15.352047 2.952860 -0.000012 0.000060 -0.000002 0.000000 0.000002 9.104596 -0.042865 -1.865214 82.997030 -17.117427 15.169630 3.150066 0.000189 -0.000097 86.986366 -13.864501 13.161944 2.950025 0.000180 -0.000078 89.468785 -13.764323 13.640276 2.644334 0.000030 0.000057 -0.000001 0.000001 -0.000000 8.077847 -0.486741 -3.806396 73.125986 -18.663593 14.350321 3.599996 0.000169 0.014567 76.075364 -15.875687 12.865366 2.100059 0.000156 0.007549 78.484228 -14.179754 12.008189 2.125505 -0.000030 0.007511 0.000001 -0.000001 -0.000000 -8.207786 -6.751667 -1.599560 -0.077001 -0.000003 0.000080 -0.000002 -44.370110 0.345938 0.153719 -0.000000 -0.000000 0.000000 -44.423679 -3.043532 -0.076700 0.000000 -0.000002 -0.000006 -8.728667 10.710559 -0.000009 -0.000000 -0.000000 -0.000001 -0.000679 9.278123 0.000000 -0.000000 -0.000000 8.207792 -6.751710 -1.599556 -0.074518 -0.000003 0.000081 -0.000002 -44.370014 0.346960 0.148822 0.000002 0.000000 -0.000001 -44.423664 -3.044403 -0.074314 0.000000 -0.000002 -0.000004 -8.728671 10.710558 0.000007 -0.000000 -0.000000 0.000000 -0.000680 9.278137 -0.000000 0.000000 -0.000001 
0.000006 104.270477 1.554256 0.000010 0.000003 -0.000113 -0.000005 10.181587 0.131522 0.000001 -0.000003 0.000084 -0.000000 9.893967 -1.470711 0.000001 0.000000 -0.000000 -0.000000 9.220802 -1.370642 0.000000 -0.000000 -0.000000 0.000001 16.740433 -2.049030 0.000000 -0.000000 -0.000000 0.000000 9.617859 1.685014 0.000000 0.000000 0.000000 0.000002 22.037384 7.501101 0.000000 -0.000000 0.000000 -4.569968 11.014880 -2.160881 0.000008 0.000001 -0.000038 -10.592872 -0.524685 -2.232024 70.837155 9.383561 -6.680522 -27.841545 0.000006 0.000540 119.033709 62.675086 -91.938356 -28.328842 0.000021 0.000024 -0.000317 -0.000044 0.000006 -2.464439 -1.573690 2.682296 -53.414214 -172.831530 -26.795792 -3.215270 -1.872585 1.924646 152.738862 32.265831 9.834532 -2.654958 -1.527872 1.513077 148.222468 26.763775 -36.334069 -2.018819 -1.151993 1.108062 -0.000001 0.000001 0.000002 -9.108368 -0.517555 2.260122 100.909372 16.863503 -20.412529 -3.700091 0.000309 0.001524 96.558138 15.554473 -17.390679 -2.850089 0.000366 -0.000260 96.189909 12.517798 -13.934439 -2.772178 -0.000015 -0.000026 -0.000000 -0.000001 -0.000000 -9.532584 0.000264 0.000257 98.616095 17.219902 -20.139597 -3.700067 0.000313 0.003999 97.895961 14.709734 -16.749835 -2.950082 0.000322 -0.001762 101.319115 12.598457 -15.331348 -2.946623 -0.000015 -0.000151 0.000002 -0.000002 -0.000001 -9.103695 -0.042766 -1.864844 98.012525 18.498828 -21.174172 -3.379337 0.000327 -0.000781 97.518873 10.000606 -11.418448 -2.889742 0.000369 0.000667 103.789273 6.602496 -8.470891 -2.638817 -0.000004 0.000945 -0.000000 0.000000 0.000000 -8.076752 -0.486389 -3.806018 91.920112 19.095165 -19.575315 -3.600038 0.000284 -0.003501 93.395433 7.268446 -7.340508 -2.100012 0.000329 -0.005470 96.584667 2.964898 -3.090150 -2.115788 -0.000069 -0.003679 -0.000002 -0.000001 -0.000001 4.570446 11.014691 -2.160851 -0.000018 0.000010 -0.000021 10.592359 -0.524554 -2.232259 69.860937 17.357765 -12.170231 27.841835 0.000108 -0.000219 102.418591 -62.932967 74.573112 28.328825 -0.000044 0.000010 0.000021 -0.000089 -0.000000 2.466248 -1.576040 2.681838 7.520560 170.444625 -103.342907 3.217850 -1.871822 1.916399 169.000873 -24.297667 28.622176 2.656100 -1.528706 1.514498 138.440367 -27.684128 64.151008 2.020888 -1.154071 1.115145 0.000002 0.000001 -0.000003 9.109391 -0.517874 2.259755 83.388202 -20.887482 18.637059 3.700046 0.000161 -0.000463 82.298001 -13.511334 11.834904 2.850044 0.000198 0.000197 81.101427 -9.912435 8.485789 2.774869 -0.000034 -0.000026 0.000001 0.000000 -0.000002 9.533461 0.000196 -0.000080 82.244220 -19.228985 16.816971 3.700046 0.000181 -0.000398 85.252037 -11.051696 10.174200 2.950044 0.000171 -0.000217 86.387379 -10.532059 9.894077 2.952848 -0.000017 0.000064 -0.000001 0.000004 0.000004 9.104595 -0.042868 -1.865207 81.800156 -18.604913 16.153172 3.150065 0.000206 -0.000095 87.956021 -12.333861 11.906441 2.950025 0.000190 -0.000097 89.411944 -9.997759 9.897882 2.644334 0.000030 0.000055 -0.000001 -0.000001 -0.000003 8.077848 -0.486734 -3.806388 75.404749 -19.489450 15.597068 3.600004 0.000153 0.014578 75.172256 -15.823837 12.619316 2.100037 0.000175 0.007533 76.946732 -11.299292 9.372642 2.125511 0.000001 0.007507 -0.000002 -0.000000 -0.000003 -8.207786 -6.751667 -1.599560 -0.077001 -0.000003 0.000080 -0.000002 -44.370110 0.345938 0.153719 -0.000000 -0.000000 0.000000 -44.423679 -3.043532 -0.076700 0.000000 -0.000002 -0.000006 -8.728667 10.710559 -0.000009 -0.000000 -0.000000 -0.000001 -0.000679 9.278123 0.000000 -0.000000 -0.000000 8.207792 -6.751710 -1.599556 -0.074518 -0.000003 0.000081 -0.000002 -44.370014 0.346960 0.148822 0.000002 0.000000 -0.000001 -44.423664 -3.044403 -0.074314 0.000000 -0.000002 -0.000004 -8.728671 10.710558 0.000007 -0.000000 -0.000000 0.000000 -0.000680 9.278137 -0.000000 0.000000 -0.000001 
0.000006 104.270477 1.554256 0.000010 0.000003 -0.000113 -0.000005 10.181587 0.131522 0.000001 -0.000003 0.000084 -0.000000 9.893967 -1.470711 0.000001 0.000000 -0.000000 -0.000000 9.220802 -1.370642 0.000000 -0.000000 -0.000000 0.000001 16.740433 -2.049030 0.000000 -0.000000 -0.000000 0.000000 9.617859 1.685014 0.000000 0.000000 0.000000 0.000002 22.037384 7.501101 0.000000 -0.000000 0.000000 -4.569968 11.014880 -2.160881 0.000008 0.000001 -0.000038 -10.592872 -0.524683 -2.232019 71.080201 9.735869 -6.963025 -27.841534 0.000004 0.000536 120.227121 62.869658 -93.528307 -28.328821 0.000006 0.000023 -0.000322 -0.000044 0.000007 -2.464425 -1.573731 2.682305 -52.209628 -169.672254 -22.263389 -3.215265 -1.872558 1.924633 152.368803 32.442275 11.467086 -2.654959 -1.527901 1.513084 147.652229 26.799186 -37.074465 -2.018819 -1.152002 1.108059 -0.000003 -0.000001 0.000002 -9.108376 -0.517567 2.260141 100.950715 16.491145 -19.980142 -3.700073 0.000304 0.001531 96.700507 15.142825 -16.973020 -2.850111 0.000354 -0.000259 96.532648 12.128298 -13.582380 -2.772170 0.000002 -0.000017 0.000003 -0.000000 -0.000001 -9.532595 0.000269 0.000273 98.248542 16.818600 -19.551140 -3.700086 0.000326 0.003999 97.754535 14.278174 -16.217336 -2.950077 0.000317 -0.001766 101.380559 12.246122 -14.920097 -2.946612 0.000013 -0.000154 -0.000002 -0.000002 0.000001 -9.103698 -0.042764 -1.864859 97.488492 18.039272 -20.464179 -3.379342 0.000328 -0.000789 97.626940 9.877838 -11.300037 -2.889745 0.000348 0.000677 104.098626 6.618973 -8.539073 -2.638804 -0.000020 0.000939 0.000000 -0.000000 0.000001 -8.076762 -0.486401 -3.806004 92.093196 18.816254 -19.345087 -3.600019 0.000291 -0.003494 93.232451 7.381250 -7.438419 -2.099981 0.000330 -0.005473 96.722343 3.100360 -3.249470 -2.115782 -0.000028 -0.003682 -0.000003 -0.000001 -0.000004 4.570446 11.014691 -2.160851 -0.000018 0.000010 -0.000021 10.592354 -0.524557 -2.232257 70.603720 18.148511 -12.904406 27.841843 0.000102 -0.000206 102.223787 -65.020081 76.629668 28.328825 -0.000027 0.000010 0.000021 -0.000088 -0.000000 2.466236 -1.576051 2.681839 6.266402 168.031751 -99.066498 3.217857 -1.871774 1.916404 168.699826 -24.897916 26.732274 2.656100 -1.528706 1.514497 138.806110 -27.543392 63.674821 2.020910 -1.154073 1.115150 0.000002 0.000003 0.000004 9.109381 -0.517870 2.259741 83.739506 -21.051838 18.898628 3.700029 0.000141 -0.000458 81.493958 -13.769193 11.892509 2.850046 0.000185 0.000197 79.994069 -10.161595 8.531246 2.774885 -0.000028 -0.000024 -0.000003 -0.000002 0.000001 9.533461 0.000185 -0.000067 81.880834 -19.731655 17.150263 3.700055 0.000166 -0.000386 84.754335 -11.754236 10.728365 2.950044 0.000184 -0.000217 86.375248 -10.983073 10.315790 2.952862 -0.000013 0.000064 0.000001 0.000000 0.000001 9.104568 -0.042867 -1.865209 81.440327 -19.180985 16.551640 3.150062 0.000177 -0.000102 87.439419 -12.779126 12.226493 2.950020 0.000171 -0.000095 89.205474 -10.208758 10.070601 2.644329 0.000030 0.000059 -0.000000 -0.000000 -0.000001 8.077840 -0.486737 -3.806395 75.339439 -19.858930 15.869328 3.600015 0.000171 0.014557 75.427855 -16.054585 12.857925 2.100041 0.000170 0.007538 77.791572 -11.422990 9.615241 2.125499 -0.000040 0.007512 0.000003 -0.000002 -0.000001 -8.207786 -6.751667 -1.599560 -0.077001 -0.000003 0.000080 -0.000002 -44.370110 0.345938 0.153719 -0.000000 -0.000000 0.000000 -44.423679 -3.043532 -0.076700 0.000000 -0.000002 -0.000006 -8.728667 10.710559 -0.000009 -0.000000 -0.000000 -0.000001 -0.000679 9.278123 0.000000 -0.000000 -0.000000 8.207792 -6.751710 -1.599556 -0.074518 -0.000003 0.000081 -0.000002 -44.370014 0.346960 0.148822 0.000002 0.000000 -0.000001 -44.423664 -3.044403 -0.074314 0.000000 -0.000002 -0.000004 -8.728671 10.710558 0.000007 -0.000000 -0.000000 0.000000 -0.000680 9.278137 -0.000000 0.000000 -0.000001 
